:FULLY-SPECIFIED
:FORCE-ALL-JOINTS-BE-3DOF
:DEGREES
883
root 3.85195 16.5305 30.5312 -10.8246 23.6768 -0.65
lfemur -15.8095 19.9983 -19.0116
ltibia 40.4913 0 0
lfoot -12.9326 0.0690648 0
ltoes -1.37978 0 0
rfemur -80.7132 -24.4467 36.5168
rtibia 101.126 0 0
rfoot 19.264 26.205 0
rtoes -8.14353 0 0
lowerback 15.0059 -4.01209 -6.64789
upperback 4.97444 -6.28636 -2.38034
thorax -2.64296 -3.11384 2.26165
lowerneck -7.71871 -3.24517 1.71638
upperneck 4.65939 -4.84264 4.94114
head 2.93726 -2.18998 1.06474
lclavicle -3.12092e-14 -4.77083e-15 0
lhumerus -33.0312 -40.5423 88.3441
lradius 60.5977 0 0
lwrist 19.6497 0 0
lhand 25.8347 11.8689 0
lfingers 7.12502 0 0
lthumb 49.9264 33.1302 0
rclavicle -3.12092e-14 -4.77083e-15 0
rhumerus -49.2556 -29.6742 -46.9493
rradius 72.2992 0 0
rwrist -23.3678 0 0
rhand -47.7649 -54.4874 0
rfingers 7.12502 0 0
rthumb -20.4424 -83.431 0
884
root 3.8436 16.5254 30.5931 -10.5407 23.5969 -0.602427
lfemur -16.0833 20.1243 -18.9188
ltibia 0 0 0
lfoot -12.9951 0.0215098 0.000894868
ltoes -1.04035 0 0
rfemur 0 0 0
rtibia 100.386 -0 0
rfoot 18.867 24.8293 0.17553
rtoes 0 0 0
lowerback 14.6859 -3.96145 -6.54916
upperback 0 0 0
thorax -2.61341 -3.06406 2.18585
lowerneck -7.70007 -3.3409 1.61621
upperneck 4.65181 -4.9596 4.94365
head 2.93861 -2.25031 1.07751
lclavicle 0 0 0
lhumerus -33.5799 -40.5269 88.9786
lradius 0 0 0
lwrist 0 0 0
lhand 25.9476 12.0102 0.0048047
lfingers 0 0 0
lthumb 0 0 0
rclavicle 0 0 0
rhumerus 0 0 0
rradius 0 0 0
rwrist 0 0 0
rhand -46.1683 -53.2197 0.712684
rfingers 0 0 0
rthumb 0 0 0
885
root 3.83713 16.5204 30.6554 -10.1756 23.4936 -0.541864
lfemur -16.4359 20.287 -18.8002
ltibia 0 0 0
lfoot -13.0756 -0.0397117 0.00197048
ltoes -0.603385 0 0
rfemur 0 0 0
rtibia 99.4341 -0 0
rfoot 18.3499 23.0565 0.387371
rtoes 0 0 0
lowerback 14.274 -3.89544 -6.42248
upperback 0 0 0
thorax -2.57547 -2.99992 2.08831
lowerneck -7.67583 -3.46408 1.4872
upperneck 4.64205 -5.11017 4.94691
head 2.94033 -2.32799 1.09394
lclavicle 0 0 0
lhumerus -34.2856 -40.5003 89.7949
lradius 0 0 0
lwrist 0 0 0
lhand 26.0929 12.1922 0.0105801
lfingers 0 0 0
lthumb 0 0 0
rclavicle 0 0 0
rhumerus 0 0 0
rradius 0 0 0
rwrist 0 0 0
rhand -44.0897 -51.559 1.57737
rfingers 0 0 0
rthumb 0 0 0
886
root 3.83217 16.5155 30.7181 -9.73929 23.3697 -0.47041
lfemur -16.8577 20.4827 -18.6596
ltibia 0 0 0
lfoot -13.1719 -0.112961 0.00314436
ltoes -0.0805859 0 0
rfemur 0 0 0
rtibia 98.2948 -0 0
rfoot 17.7229 20.933 0.61964
rtoes 0 0 0
lowerback 13.7815 -3.81528 -6.27156
upperback 0 0 0
thorax -2.53023 -2.9231 1.97168
lowerneck -7.64645 -3.61139 1.33276
upperneck 4.63035 -5.29031 4.95084
head 2.94235 -2.42091 1.11361
lclavicle 0 0 0
lhumerus -35.1289 -40.4585 90.7704
lradius 0 0 0
lwrist 0 0 0
lhand 26.2668 12.4099 0.0168836
lfingers 0 0 0
lthumb 0 0 0
rclavicle 0 0 0
rhumerus 0 0 0
rradius 0 0 0
rwrist 0 0 0
rhand -41.5698 -49.5312 2.53137
rfingers 0 0 0
rthumb 0 0 0
887
root 3.82838 16.5107 30.7811 -9.24184 23.2276 -0.390164
lfemur -17.3393 20.7073 -18.5007
ltibia 0 0 0
lfoot -13.2819 -0.196598 0.00433415
ltoes 0.516341 -0 0
rfemur 0 0 0
rtibia 96.9939 -0 0
rfoot 16.9971 18.5053 0.856208
rtoes 0 0 0
lowerback 13.2195 -3.72218 -6.10011
upperback 0 0 0
thorax -2.47877 -2.83528 1.83859
lowerneck -7.61242 -3.77949 1.15629
upperneck 4.61697 -5.49599 4.95538
head 2.94463 -2.52702 1.13605
lclavicle 0 0 0
lhumerus -36.0896 -40.3974 91.8822
lradius 0 0 0
lwrist 0 0 0
lhand 26.4653 12.6585 0.0232729
lfingers 0 0 0
lthumb 0 0 0
rclavicle 0 0 0
rhumerus 0 0 0
rradius 0 0 0
rwrist 0 0 0
rhand -38.6508 -47.1652 3.50964
rfingers 0 0 0
rthumb 0 0 0
888
root 3.8254 16.5059 30.8443 -8.69322 23.0698 -0.303189
lfemur -17.8714 20.9568 -18.3272
ltibia 0 0 0
lfoot -13.4033 -0.288985 0.00546179
ltoes 1.17569 -0 0
rfemur 0 0 0
rtibia 95.557 -0 0
rfoot 16.1844 15.8203 1.0815
rtoes 0 0 0
lowerback 12.5992 -3.61739 -5.91183
upperback 0 0 0
thorax -2.42216 -2.73813 1.69169
lowerneck -7.57421 -3.96504 0.96121
upperneck 4.60217 -5.72319 4.96044
head 2.94709 -2.64422 1.16085
lclavicle 0 0 0
lhumerus -37.1476 -40.3135 93.1072
lradius 0 0 0
lwrist 0 0 0
lhand 26.6847 12.9331 0.0293288
lfingers 0 0 0
lthumb 0 0 0
rclavicle 0 0 0
rhumerus 0 0 0
rradius 0 0 0
rwrist 0 0 0
rhand -35.3788 -44.4944 4.4477
rfingers 0 0 0
rthumb 0 0 0
889
root 3.82287 16.501 30.9075 -8.10342 22.8991 -0.211475
lfemur -18.4444 21.2271 -18.1428
ltibia 0 0 0
lfoot -13.5341 -0.38848 0.00645715
ltoes 1.88576 -0 0
rfemur 0 0 0
rtibia 94.0096 -0 0
rfoot 15.2984 12.9253 1.28123
rtoes 0 0 0
lowerback 11.9315 -3.50228 -5.71038
upperback 0 0 0
thorax -2.36149 -2.63335 1.53361
lowerneck -7.53235 -4.16472 0.750936
upperneck 4.58621 -5.96785 4.96597
head 2.94969 -2.77044 1.18754
lclavicle 0 0 0
lhumerus -38.2825 -40.2038 94.422
lradius 0 0 0
lwrist 0 0 0
lhand 26.9209 13.2289 0.0346746
lfingers 0 0 0
lthumb 0 0 0
rclavicle 0 0 0
rhumerus 0 0 0
rradius 0 0 0
rwrist 0 0 0
rhand -31.8056 -41.5594 5.28479
rfingers 0 0 0
rthumb 0 0 0
